<svg id="Layer_1" enable-background="new 0 0 511.953 511.953" height="512" viewBox="0 0 511.953 511.953" width="512" xmlns="http://www.w3.org/2000/svg"><g><path d="m418.881 32.039-244.345 244.345 61.044 61.057 244.351-244.351z" fill="#725d57"/><path d="m169.709 178.407h345.562v43.181h-345.562z" fill="#53433f" transform="matrix(.707 -.707 .707 .707 -41.118 300.714)"/><path d="m499.327 12.644c-8.154-8.154-18.994-12.644-30.526-12.644s-22.372 4.49-30.525 12.644l-40.609 40.608 61.051 61.051 40.608-40.609c16.832-16.831 16.832-44.218.001-61.05z" fill="#53433f"/><path d="m235.627 281.566-2.041-3.186-3.204-2.051c-21.11-13.504-45.499-20.642-70.529-20.642-35.002 0-67.902 13.623-92.637 38.358l-67.214 67.215 31.126 19.226c7.906 4.883 16.725 7.984 25.868 9.134-10.47 19.64-15.126 42.083-13.059 64.817l1.132 12.449 12.449 1.132c3.471.315 6.996.476 10.478.476 19.247 0 37.777-4.672 54.296-13.478 1.146 8.926 4.182 17.724 9.177 25.812l19.225 31.126 67.218-67.218c21.03-21.03 34.379-48.894 37.59-78.46s-3.845-59.649-19.875-84.71z" fill="#fabe2c"/><g><path d="m310.608 319.939h30v30.002h-30z" fill="#fff7cc"/></g><g><path d="m290.607 379.943h30v30.002h-30z" fill="#fff7cc"/></g><g><path d="m162.015 171.347h30v30.002h-30z" fill="#fff7cc"/></g><g><path d="m102.011 191.348h30v30.002h-30z" fill="#fff7cc"/></g><g><path d="m310.608 319.939h30v30.002h-30z" fill="#ffe6b3"/></g><g><path d="m290.607 379.943h30v30.002h-30z" fill="#ffe6b3"/></g><path d="m499.318 12.636-71.133 71.134 30.533 30.533 40.608-40.609c16.832-16.832 16.832-44.219 0-61.05-.002-.003-.005-.005-.008-.008z" fill="#3e322e"/><path d="m57.518 468.017c3.471.315 6.996.476 10.478.476 19.247 0 37.777-4.672 54.296-13.478 1.146 8.926 4.182 17.724 9.177 25.812l19.225 31.126 67.218-67.218c21.03-21.03 34.379-48.894 37.59-78.46s-3.846-59.647-19.875-84.708l-2.041-3.186-.008-.005-188.51 188.51z" fill="#ff9100"/></g></svg>